HIERARCHY
ROOT simHips
{
  OFFSET -15.6202 97.8545 -2.74725
  CHANNELS 6 Xposition Yposition Zposition Zrotation Xrotation Yrotation
  JOINT simSpine
  {
    OFFSET -0.000355721 21.3001 -0.016921
    CHANNELS 3 Zrotation Xrotation Yrotation
    JOINT simLeftArm
    {
      OFFSET 13.5181 21.3012 0
      CHANNELS 3 Zrotation Xrotation Yrotation
      JOINT simLeftForeArm
      {
        OFFSET 24.5783 0 0
        CHANNELS 3 Zrotation Xrotation Yrotation
        JOINT simLeftHand
        {
          OFFSET 24.5783 0 0
          CHANNELS 3 Zrotation Xrotation Yrotation
          End Site
          {
            OFFSET 7.32568 1.52588e-005 0.0169305
          }
        }
      }
    }
    JOINT simHead
    {
      OFFSET 0 27.4458 -0.00489235
      CHANNELS 3 Zrotation Xrotation Yrotation
      End Site
      {
        OFFSET 0 0 0
      }
    }
    JOINT simRightArm
    {
      OFFSET -13.5174 21.3012 0
      CHANNELS 3 Zrotation Xrotation Yrotation
      JOINT simRightForeArm
      {
        OFFSET -24.5783 0 0
        CHANNELS 3 Zrotation Xrotation Yrotation
        JOINT simRightHand
        {
          OFFSET -24.5783 0 0
          CHANNELS 3 Zrotation Xrotation Yrotation
          End Site
          {
            OFFSET -7.32568 1.52588e-005 0.0169305
          }
        }
      }
    }
  }
  JOINT simRightUpLeg
  {
    OFFSET -8.44614 -9.41038 0.835684
    CHANNELS 3 Zrotation Xrotation Yrotation
    JOINT simRightLeg
    {
      OFFSET 0 -40.9639 0
      CHANNELS 3 Zrotation Xrotation Yrotation
      JOINT simRightFoot
      {
        OFFSET 0 -40.9639 0
        CHANNELS 3 Zrotation Xrotation Yrotation
        End Site
        {
          OFFSET 0.50614 -9.67405 14.6709
        }
      }
    }
  }
  JOINT simLeftUpLeg
  {
    OFFSET 8.44614 -9.41038 0.835684
    CHANNELS 3 Zrotation Xrotation Yrotation
    JOINT simLeftLeg
    {
      OFFSET 0 -40.9639 0
      CHANNELS 3 Zrotation Xrotation Yrotation
      JOINT simLeftFoot
      {
        OFFSET 0 -40.9639 0
        CHANNELS 3 Zrotation Xrotation Yrotation
        End Site
        {
          OFFSET -0.50614 -9.67405 14.6709
        }
      }
    }
  }
}
MOTION
Frames:	20
Frame Time:	0.0333333
-15.6202 97.8545 -2.74725 -1.33402e-008 4.75608e-018 -4.08544e-008 -4.13547e-007 -2.99633e-016 4.08544e-008 -6.83019e-006 -1.70755e-006 -1.53679e-005 7.25708e-006 1.70755e-006 2.50273e-005 -3.36542e-030 0 -9.51927e-006 4.26887e-007 -1.32008e-034 5.33609e-008 6.83019e-006 -8.53773e-007 5.12264e-006 -6.40329e-006 -5.97642e-006 9.67673e-005 4.26886e-007 6.83019e-006 9.60599e-006 -2.51749 6.72798 0.148701 -1.82801e-005 0.0632308 0.000419607 2.5177 -6.7912 0.149675 4.51755 0.00776696 -0.250722 2.33628e-005 12.6836 -0.151152 -4.59662 -12.6832 -0.611897 
-15.6243 97.8748 -2.73166 -0.0265641 -0.0203082 0.102667 0.158566 0.101964 0.0843461 -0.216456 0.0315827 -0.0866771 0.0528358 0.0111855 -0.0480793 0.0324607 0.0144442 -0.031424 -0.141992 -0.0344225 -0.352791 0.0111834 -0.0797725 -0.227125 -0.0149059 -0.0580096 9.67674e-005 0.0200509 -0.050277 -0.0213061 -2.44814 6.43866 0.143534 -0.0464631 0.823962 -0.0982272 2.55905 -7.24501 0.110697 4.4919 -0.449521 -0.556903 -0.05442 13.737 0.0281557 -4.43399 -13.3566 -0.287214 
-15.6275 97.8631 -2.6694 -0.0522648 -0.0716531 0.189992 0.298986 0.278975 0.159557 -0.464053 0.0662094 -0.120683 0.110574 -0.00107566 -0.139304 0.0645099 0.0173642 -0.0907353 -0.274042 -0.0752747 -0.597681 0.099259 -0.278509 -0.425074 -0.0987522 -0.0475775 9.67673e-005 0.0450484 -0.0679415 -0.0439231 -2.38747 6.22798 0.108185 -0.0863251 1.60256 -0.202982 2.73899 -7.96896 0.133536 4.49518 -0.877935 -0.783456 -0.138007 14.9369 0.256573 -4.47572 -14.3666 0.0270423 
-15.6362 97.8428 -2.52188 -0.0687857 -0.113994 0.17719 0.358044 0.461288 0.254684 -0.704679 0.1893 -0.0206767 0.18616 -0.0502195 -0.376184 0.0765851 0.0260355 -0.103499 -0.296139 0.00019056 -0.786423 0.270087 -0.240476 -0.501058 -0.104397 -0.0662392 9.67674e-005 0.0204865 -0.090961 -0.0220182 -2.3398 6.06849 -0.0481141 -0.0884762 2.27675 -0.283707 2.77809 -8.5563 0.303064 4.54903 -1.08511 -0.894845 -0.23253 15.7742 0.421344 -4.59762 -15.235 0.153121 
-15.6871 97.8195 -2.30142 -0.0741806 -0.121858 0.0837284 0.345009 0.58545 0.396933 -1.1166 0.36455 0.238067 0.372053 -0.190384 -0.978134 0.201707 0.0759562 -0.0799746 -0.306731 0.180791 -0.893439 0.599892 -0.555452 -0.64514 -0.141664 -0.167143 8.01743e-006 -0.0501925 -0.155493 -0.126946 -2.29293 5.92128 -0.137082 -0.102017 2.90124 -0.345494 2.73042 -9.03183 0.46356 4.60306 -1.0962 -1.02065 -0.293671 16.2861 0.568628 -4.82864 -16.0452 0.232851 
-15.7606 97.7973 -2.00134 -0.0560627 -0.092537 -0.0438463 0.329069 0.651926 0.501473 -1.81239 1.0979 0.532528 0.740398 -0.186736 -2.172 0.341975 0.254029 -0.265066 -0.360807 0.456514 -0.932708 1.00511 -0.800547 -0.730929 -0.139241 -0.255976 0.173126 -0.0855473 -0.207321 0.0232173 -2.24506 5.81392 -0.128333 -0.126781 3.45922 -0.417894 2.66028 -9.42992 0.569245 4.62748 -0.922538 -1.14461 -0.307264 16.4322 0.686105 -5.05867 -16.6255 0.315411 
-15.8566 97.7757 -1.6541 -0.0188556 -0.0138205 -0.132288 0.319546 0.771275 0.572968 -2.89138 2.91326 0.738872 1.45309 -0.0913691 -4.51149 0.648988 0.686886 -0.67446 -0.447574 0.693929 -0.934961 1.55351 -1.10535 -0.863841 -0.235116 -0.300391 0.92082 -0.246649 -0.157441 0.34163 -2.21187 5.72059 -0.091611 -0.138987 3.94562 -0.498317 2.63417 -9.78558 0.654573 4.65008 -0.730962 -1.21449 -0.329636 16.463 0.776166 -5.21859 -16.9985 0.339221 
-15.9829 97.7435 -1.25164 -0.00662157 0.120322 -0.095272 0.380245 0.985283 0.650234 -4.75092 4.8431 1.03799 2.50629 -0.459553 -8.44077 1.06802 1.07217 -1.45288 -0.506511 0.786754 -1.12117 2.30326 -0.895886 -1.27301 -0.200908 -0.511693 2.81637 -0.806051 -0.00233404 0.925821 -2.09948 5.67072 -0.0602882 -0.180149 4.33885 -0.630563 2.53042 -10.142 0.682375 4.75164 -0.659235 -1.30797 -0.399368 16.6355 0.86665 -5.39454 -17.4662 0.320764 
-16.1347 97.6911 -0.791953 0.00342683 0.342766 0.0978339 0.621333 1.29869 0.78311 -7.49791 7.73633 1.07424 3.64214 -0.904895 -13.7214 1.62446 1.52369 -3.24374 -0.75169 0.671789 -1.34432 3.35867 -1.03421 -2.14345 -0.24388 -0.657919 5.93415 -1.53033 0.332524 2.02939 -1.94425 5.63616 -0.0347768 -0.237704 4.62878 -0.799476 2.4315 -10.4916 0.639436 4.86063 -0.718891 -1.52785 -0.475912 16.8513 0.942318 -5.4697 -17.7863 0.332284 
-16.3322 97.6273 -0.261305 0.0173355 0.607692 0.357325 0.916141 1.7207 0.997141 -10.8808 10.8734 0.906534 4.50803 -1.87805 -20.2322 2.55753 1.98784 -5.69868 -1.05882 0.619087 -1.5943 4.9801 -1.23092 -3.53145 -0.104547 -0.864322 10.8782 -2.48097 0.864726 3.40253 -1.75926 5.62871 -0.0776837 -0.284166 4.87238 -0.987737 2.31235 -10.8107 0.59363 4.99766 -0.723946 -1.76644 -0.550192 16.8138 0.973098 -5.41379 -17.5607 0.370313 
-16.5774 97.5614 0.33548 0.0323959 0.950667 0.721221 1.21696 2.21096 1.34221 -14.8996 13.5636 0.581294 5.36906 -3.27854 -27.6517 3.78644 2.48584 -8.86216 -1.39032 0.672124 -1.84548 7.52414 -2.47414 -5.76254 0.0545622 -1.18877 17.5433 -3.48721 1.5167 4.94085 -1.56204 5.43494 -0.227293 -0.281769 5.4119 -1.17548 2.19862 -11.1431 0.583058 5.18299 -0.75361 -2.07946 -0.631387 16.5843 0.923498 -5.15696 -16.7347 0.36341 
-16.8866 97.4978 0.989105 0.0333336 1.34593 1.12955 1.42124 2.79585 1.77458 -19.4941 15.9241 0.0570338 5.71999 -5.31958 -35.3474 5.61306 2.96478 -12.393 -1.69115 0.708786 -1.86878 10.9278 -3.95103 -8.23241 0.786651 -1.6651 25.164 -4.42649 2.16632 6.85508 -1.31889 5.09837 -0.420869 -0.247062 6.13977 -1.36782 1.99216 -11.3559 0.578219 5.40415 -0.980871 -2.44836 -0.725471 16.6864 0.916651 -4.90784 -16.1283 0.412711 
-17.2657 97.4168 1.72877 -0.0136519 1.73341 1.51829 1.46977 3.42352 2.20658 -24.5992 17.8538 -0.624614 5.30215 -7.7772 -42.5313 7.16771 3.09485 -15.6431 -1.80278 0.891052 -1.82772 15.2728 -5.12068 -10.4293 2.03357 -2.15589 33.1526 -5.52735 2.93306 9.00804 -0.980642 4.99846 -0.594384 -0.224187 6.59268 -1.58771 1.85564 -11.7684 0.628894 5.6771 -1.34842 -2.93144 -0.832474 17.3156 1.02216 -4.87809 -16.1703 0.637173 
-17.7231 97.2803 2.51253 -0.138625 2.15563 1.94188 1.62568 3.95772 2.56479 -30.2708 19.832 -1.54165 4.33219 -10.1839 -48.5278 8.43776 2.82506 -18.827 -2.00193 1.33341 -1.94318 20.5031 -6.03089 -12.1829 3.05278 -2.52922 41.047 -6.78456 3.89828 11.1738 -0.469895 4.97271 -0.598249 -0.296713 6.9023 -1.81204 1.87361 -12.4639 0.657285 6.02348 -2.52871 -3.82395 -1.09643 19.4705 1.21703 -4.84606 -16.5105 1.29226 
-18.2484 97.0826 3.31359 -0.363083 2.5512 2.36858 2.12744 4.49709 2.90439 -36.1582 22.774 -2.86929 3.44269 -11.9859 -53.0059 10.3423 2.67815 -22.0306 -2.50071 1.92849 -2.17749 26.2008 -6.53525 -13.1156 4.19005 -2.93533 47.7927 -7.88228 4.73813 13.3699 0.241465 4.90707 -0.663894 -0.444936 7.2563 -2.04614 1.78222 -13.2333 0.745443 6.37115 -4.97722 -5.14919 -1.64266 24.0472 1.5335 -4.55734 -16.997 2.56709 
-18.8168 96.7915 4.13205 -0.694765 2.89311 2.7954 2.84816 5.1462 3.16056 -41.7116 26.1829 -4.37502 3.57236 -12.9896 -55.8351 12.2227 2.63524 -24.8138 -3.12326 2.25432 -2.6074 32.2861 -6.54293 -13.022 5.91958 -3.49515 52.9552 -8.79198 5.24337 15.0627 1.15372 5.23895 -0.809931 -0.691721 7.22378 -2.28665 1.67225 -14.3019 0.906313 6.68863 -8.35447 -6.53941 -2.49454 30.3275 1.92958 -3.96049 -16.9623 4.30349 
-19.3495 96.437 4.98693 -1.07481 3.1929 3.1491 3.7098 5.95212 3.24945 -47.0109 29.0731 -5.40662 4.08572 -13.4497 -57.2184 13.8944 2.40241 -27.4506 -3.81653 2.24071 -3.15036 38.1361 -5.97707 -11.4522 7.68095 -4.0116 56.4102 -9.02913 5.32474 16.4276 2.10491 5.67937 -0.960503 -0.970823 6.99598 -2.49509 1.60496 -15.4508 1.14492 7.03147 -12.2675 -7.65858 -4.01961 37.4685 2.65946 -3.11996 -15.973 6.53294 
-19.7994 96.1033 5.8896 -1.42174 3.4273 3.3955 4.49375 7.02809 3.07072 -51.8 30.7594 -5.62629 4.0453 -13.5495 -57.4395 15.7136 2.08324 -29.8194 -4.45562 1.92956 -3.86219 43.5188 -4.81579 -8.14444 8.99527 -4.36532 58.2523 -9.40271 5.278 17.6362 2.88735 6.43038 -1.24972 -1.11939 6.31708 -2.66443 1.57958 -16.3144 1.51143 7.55273 -16.65 -8.07088 -7.05245 45.1864 4.59942 -1.42221 -13.5924 9.04332 
-20.1223 95.8195 6.89346 -1.73806 3.56303 3.65887 5.01981 8.34979 2.69639 -55.748 30.9329 -5.23843 3.11988 -13.3645 -56.7229 16.5373 1.84945 -30.4152 -4.74686 1.04681 -4.17752 48.2587 -2.47603 -3.68208 9.2531 -4.55777 59.8846 -10.6549 5.62395 18.8953 3.47366 7.60966 -1.94138 -1.0513 5.05694 -2.81787 1.48743 -16.5869 2.03642 7.21004 -21.0829 -7.50344 -8.78399 52.9809 6.55851 0.789258 -10.2546 11.1303 
-20.3284 95.5873 8.0521 -2.02311 3.6987 3.98133 5.30946 9.67826 2.19624 -58.6451 30.0609 -4.4556 2.12711 -12.8846 -55.2499 16.6297 1.59364 -30.3931 -4.5049 -0.117654 -3.96327 51.766 1.16873 1.31533 9.33966 -4.902 62.3832 -12.4062 6.05998 20.4945 3.89043 8.37334 -2.81372 -0.83713 4.78676 -2.96345 1.37289 -17.0165 2.62202 6.72873 -24.989 -5.9848 -10.3731 59.0983 9.22219 3.05954 -9.00015 12.9854 
